<svg xmlns="http://www.w3.org/2000/svg" viewBox="0 0 128 128"><path fill="#009688" d="M56.813 127.586c-1.903-.227-3.899-.52-4.434-.652a48.078 48.078 0 00-2.375-.5 36.042 36.042 0 01-2.703-.633c-4.145-1.188-4.442-1.285-7.567-2.563-2.875-1.172-8.172-3.91-9.984-5.156-.496-.344-.96-.621-1.031-.621-.07 0-1.23-.816-2.578-1.813-8.57-6.343-15.004-14.043-19.653-23.527-.8-1.629-1.453-3.074-1.453-3.21 0-.134-.144-.505-.32-.817-.363-.649-.88-2.047-1.297-3.492a20.047 20.047 0 00-.625-1.813c-.195-.46-.352-1.02-.352-1.246 0-.227-.195-.965-.433-1.645-.238-.675-.43-1.472-.43-1.77 0-.296-.187-1.32-.418-2.276C.598 73.492 0 67.379 0 63.953c0-3.422.598-9.535 1.16-11.894.23-.957.418-2 .418-2.32 0-.321.145-.95.32-1.4.18-.448.41-1.253.516-1.788.11-.535.36-1.457.563-2.055l.59-1.726c.433-1.293.835-2.387 1.027-2.813.11-.238.539-1.21.957-2.16.676-1.535 2.125-4.43 2.972-5.945.309-.555.426-.739 2.098-3.352 2.649-4.148 7.176-9.309 11.39-12.988 1.485-1.297 6.446-5.063 6.669-5.063.062 0 .53-.281 1.043-.625 1.347-.902 2.668-1.668 4.39-2.531a53.06 53.06 0 001.836-.953c.285-.164.82-.41 3.567-1.64.605-.27 1.257-.516 3.136-1.173.414-.144 1.246-.449 1.84-.672.598-.222 1.301-.406 1.563-.406.258 0 .937-.18 1.508-.402.57-.223 1.605-.477 2.304-.563.696-.082 1.621-.277 2.055-.43.43-.148 1.61-.34 2.621-.425a72.572 72.572 0 003.941-.465c2.688-.394 8.532-.394 11.192 0a75.02 75.02 0 003.781.445c.953.079 2.168.278 2.703.442.535.16 1.461.36 2.055.433.594.079 1.594.325 2.222.551.63.23 1.344.414 1.59.414s.754.137 1.125.309c.375.168 1.168.449 1.766.625.594.18 1.613.535 2.27.797.652.261 1.527.605 1.945.761.77.29 6.46 3.137 7.234 3.622 6.281 3.917 9.512 6.476 13.856 10.964 5.238 5.414 8.715 10.57 12.254 18.16.25.536.632 1.329.851 1.758.215.434.395.942.395 1.13 0 .19.18.76.402 1.269.602 1.383 1.117 2.957 1.36 4.16.12.59.343 1.32.495 1.621.153.3.332 1.063.403 1.688.07.624.277 1.648.453 2.269 1.02 3.531 1.527 13.934.91 18.535-.183 1.367-.39 3.02-.46 3.672-.118 1.117-.708 4.004-1.212 5.945l-.52 2.055c-.98 3.957-3.402 9.594-6.359 14.809-1.688 2.947-3.373 5.608-4.887 7.977l-.82 1.292c-.84 1.33-1.91 2.39-2.55 2.97-1.31 1.2-2.75 1.77-3.85 1.88-1.64.16-3.4-.06-4.78-.5-.27-.1-.5-.3-.7-.5-1.54-1.12-2.68-2.55-3.19-3.82-1.07-2.7-1.75-5.7-.28-7.88.96-1.42 2.32-2.65 3.32-3.62 1.18-1.13 3.3-2.96 4.6-3.92 1.16-.86 2.82-1.78 3.5-2.16.67-.38 1.72-.74 2.13-.82.42-.08.86-.14 1.42-.14.54 0 1.08.06 1.72.14.41.08 1.46.44 2.13.82.68.38 2.34 1.3 3.5 2.16 1.3.96 3.42 2.79 4.6 3.92 1 .96 2.36 2.2 3.32 3.62 1.47 2.18.79 5.17-.28 7.88-.5 1.28-1.64 2.7-3.19 3.82-.5 1.28-1.64 2.7-3.19 3.82-.62.44-1.78.92-3.85 1.88-.64.58-1.71 1.64-2.55 2.97l-.82 1.29c-1.51 2.37-3.2 5.03-4.89 7.98-2.96 5.21-5.38 10.85-6.36 14.81l-.52 2.05c-.18.62-.4 1.65-.45 2.27-.14 1.04-.34 2.37-.7 3.67-.07.65-.28 2.3-.46 3.67-.61 4.6-1.11 15.01.91 18.53.14 1.39.3 2.96.47 4.52.17 1.56.52 2.97 1.04 4.16.5 1.18 1.08 2.63 1.52 3.87.44 1.24.95 2.35 1.36 3.31.24.57.47 1.18.75 1.68.28.5.65 1.01 1.02 1.44.37.43.88.76 1.4.99.53.23 1.38.44 2.12.53.73.09 1.81.17 2.34.2.53.03 1.37-.04 1.56-.08.19-.03.68-.15 1.05-.25.37-.1.77-.24 1.07-.32.3-.08.7-.16 1.05-.18.35-.02 1.23.07 1.58.14.35.07 1.26.13 1.6.13.34 0 .97-.06 1.31-.09.34-.03.95-.1 1.27-.1.32 0 1.1-.03 1.44-.03.34 0 1.08.03 1.42.08.34.05.68.12 1.05.25.37.13.77.27 1.07.35.3.08.7.16 1.05.18.35.02 1.23-.07 1.58-.14.35-.07 1.26-.13 1.6-.13.34 0 .97.06 1.31.09.34.03.95.1 1.27.1.32 0 1.1.03 1.44.03.34 0 1.08-.03 1.42-.08.34-.05.68-.12 1.05-.25.37-.13.77-.27 1.07-.35.3-.08.7-.16-1.05-.18-.35-.02-1.23.07-1.58.14-.35.07-1.26.13-1.6.13-.34 0-.97-.06-1.31-.09-.34-.03-.95-.1-1.27-.1-.32 0-1.1-.03-1.44-.03-.34 0-1.08.03-1.42.08-.34.05-.68.12-1.05.25-.37.13-.77.27-1.07.35-.3.08-.7.16-1.05.18-.35.02-1.23.07-1.58.14-.35.07-1.26.13-1.6.13-.34 0-.97-.06-1.31-.09-.34-.03-.95-.1-1.27-.1-.32 0-1.1-.03-1.44-.03z"/></svg>